<?xml version="1.0" encoding="UTF-8" standalone="no"?>
<!-- Created with Inkscape (http://www.inkscape.org/) -->

<svg
   xmlns:dc="http://purl.org/dc/elements/1.1/"
   xmlns:cc="http://creativecommons.org/ns#"
   xmlns:rdf="http://www.w3.org/1999/02/22-rdf-syntax-ns#"
   xmlns:svg="http://www.w3.org/2000/svg"
   xmlns="http://www.w3.org/2000/svg"
   xmlns:sodipodi="http://sodipodi.sourceforge.net/DTD/sodipodi-0.dtd"
   xmlns:inkscape="http://www.inkscape.org/namespaces/inkscape"
   height="26.220295mm"
   width="19.595938mm"
   viewBox="0 0 69.434425 92.906557"
   id="svg3383"
   version="1.1"
   inkscape:version="0.91 r13725"
   sodipodi:docname="free-scope.svg">
  <defs
     id="defs3389" />
  <sodipodi:namedview
     pagecolor="#ffffff"
     bordercolor="#666666"
     borderopacity="1"
     objecttolerance="10"
     gridtolerance="10"
     guidetolerance="10"
     inkscape:pageopacity="0"
     inkscape:pageshadow="2"
     inkscape:window-width="3200"
     inkscape:window-height="1757"
     id="namedview3387"
     showgrid="false"
     fit-margin-top="1"
     fit-margin-left="1"
     fit-margin-right="1"
     fit-margin-bottom="1"
     inkscape:zoom="16.382051"
     inkscape:cx="34.717213"
     inkscape:cy="46.453278"
     inkscape:window-x="0"
     inkscape:window-y="0"
     inkscape:window-maximized="1"
     inkscape:current-layer="svg3383" />
  <metadata
     id="metadata3385">
    <rdf:RDF>
      <cc:Work
         rdf:about="">
        <dc:format>image/svg+xml</dc:format>
        <dc:type
           rdf:resource="http://purl.org/dc/dcmitype/StillImage" />
        <dc:title></dc:title>
      </cc:Work>
    </rdf:RDF>
  </metadata>
  <path
     style="fill:#a4a4a4;fill-opacity:1;stroke:none;stroke-width:0.99999994;stroke-opacity:1"
     d="m 3.5551053,85.205057 c 0,-4.90342 -0.40314,-4.397 3.50367,-4.40108 l 2.6091,-0.003 0.12425,-0.62224 c 0.0684,-0.34224 0.12424,-0.96946 0.12424,-1.39383 l 0,-0.77157 4.1519297,0 4.15192,0 1.16569,-0.77534 c 1.30978,-0.87118 4.66088,-2.91643 5.47822,-3.34346 0.4883,-0.25512 0.62852,-0.23285 1.59032,0.2527 0.58013,0.29288 1.77042,0.9649 2.6451,1.49337 0.87467,0.52848 1.83632,1.01945 2.13698,1.09104 l 0.54667,0.13016 0,-1.78359 c 0,-0.98099 -0.0574,-2.46455 -0.1277,-3.29682 l -0.1277,-1.51322 -8.10571,-0.06 c -4.45814,-0.033 -8.14871,-0.10477 -8.20128,-0.15953 -0.0525,-0.0548 -0.14066,-1.17479 -0.19581,-2.48896 l -0.10024,-2.38941 -5.5357397,-0.0996 -5.53573,-0.0996 -0.0623,-0.98899 c -0.0478,-0.75829 0.0181,-1.04785 0.28215,-1.24131 0.32579,-0.23862 0.32475,-0.2742 -0.0193,-0.65494 -0.20006,-0.22145 -0.31294,-0.45354 -0.25081,-0.51576 0.17068,-0.17096 41.8388897,-0.20565 42.0097597,-0.035 0.0816,0.0815 -4e-4,0.31276 -0.18225,0.51396 -0.18178,0.20121 -0.2652,0.43126 -0.18536,0.51123 0.0798,0.08 0.19185,0.61031 0.24892,1.17854 0.10189,1.01453 0.11518,1.03264 0.73765,1.00512 0.85124,-0.0377 3.44088,-1.67535 4.43131,-2.80239 1.22178,-1.39032 1.66929,-2.75913 1.67854,-5.13425 0.006,-1.57824 -0.0881,-2.27138 -0.45442,-3.34233 -0.87325,-2.55292 -2.78919,-4.47295 -5.73205,-5.74425 l -1.55122,-0.6701 -6.34455,-0.058 c -5.01492,-0.046 -6.37866,0 -6.50731,0.1991 -0.0895,0.1413 -0.16412,1.041 -0.1658,1.9992 l -0.003,1.74227 -0.6745,0 c -0.43167,0 -0.71793,0.11339 -0.79515,0.31496 -0.0664,0.17323 -0.12067,1.50768 -0.12067,2.96545 0,2.25458 -0.0479,2.6689 -0.32057,2.77371 -0.26202,0.10071 -0.275,0.17822 -0.071,0.42435 0.2998,0.36183 0.31704,0.34368 -0.8011,0.84358 -1.44149,0.64446 -3.42414,0.74604 -4.99561,0.25595 -1.38106,-0.43072 -1.88138,-0.80974 -1.69862,-1.28681 0.06,-0.15659 -0.0233,-0.33562 -0.18515,-0.39782 -0.24165,-0.0929 -0.28913,-0.59174 -0.26566,-2.79074 0.0157,-1.47272 -0.0373,-2.78441 -0.1178,-2.9149 -0.16556,-0.26833 -2.28803,-1.2575 -3.13393,-1.4605 -0.53309,-0.128 -0.5849,-0.072 -1.22218,1.31624 -0.36603,0.79745 -0.80566,1.78934 -0.97697,2.20421 l -0.31144,0.7543 -0.84395,-0.43127 c -0.83021,-0.42424 -0.84877,-0.42502 -1.13984,-0.0481 -0.2887,0.37388 -0.3439,0.36497 -2.26935,-0.36637 -1.08539,-0.41228 -2.1833897,-0.88738 -2.4399997,-1.05579 -0.52036,-0.34151 -0.49685,-0.47948 0.38055,-2.23297 0.2637097,-0.52705 0.5934397,-1.31665 0.7327097,-1.75475 0.1393,-0.438 0.50933,-1.3091 0.82231,-1.9357 0.69483,-1.391 0.70484,-1.6496 0.0797,-2.0599 l -0.48937,-0.3212 0.37049,-0.9767 c 0.57914,-1.5266 1.37714,-2.7707 1.77729,-2.7707 0.19641,0 1.25933,0.4419 2.36202,0.9821 1.1027,0.5401 2.31111,1.0667 2.68536,1.1702 l 0.68047,0.1882 0.12916,-3.4103 c 0.071,-1.8757 0.12942,-4.7728 0.12976,-6.4381 l 5.8e-4,-3.0277 1.39152,-0.8141 1.39153,-0.814 0.001,-8.1052 c 4e-4,-4.4579 0.0583,-9.1029 0.12846,-10.3222999 0.12098,-2.1029 0.10556,-2.236 -0.29909,-2.583 -0.23475,-0.2013 -0.42673,-0.5081 -0.42673,-0.6819 0,-0.1737 -0.13134,-0.4898 -0.29187,-0.7024 -0.16051,-0.2126 -0.29469,-0.7225 -0.29817,-1.1332 l -0.006,-0.7467 5.26791,0 5.26793,0 0,0.5835 c 0,0.4338 -0.10407,0.5998 -0.40546,0.6471 -0.40153,0.063 -0.40543,0.1552 -0.40309,9.5051999 l 0.003,9.4415 0.83445,1.2113 c 0.45894,0.6661 1.13802,1.6342 1.50907,2.1511 l 0.67462,0.94 2.52194,0.056 2.52192,0.056 0.0617,0.7467 0.0617,0.7467 3.27212,0 3.27212,0 0.64198,0.9273 c 0.35307,0.5101 1.30911,1.7869 2.12451,2.8375 0.8154,1.0505 3.27924,4.3754 5.47519,7.3888 2.19595,3.0133 5.28592,7.1905 6.8666,9.28266 3.02247,4.0005 3.98237,5.66757 4.84568,8.41556 1.26821,4.03682 1.08032,7.37128 -0.59577,10.57328 -1.99725,3.81553 -4.95041,5.97525 -8.8683,6.48559 -1.09531,0.14268 -2.04926,0.31705 -2.11989,0.38749 -0.0707,0.0705 -0.15829,1.1961 -0.19477,2.50145 l -0.0664,2.37337 4.34031,0.001 c 2.38718,5.8e-4 5.07833,0.0587 5.98033,0.12908 l 1.64002,0.12787 0,4.15195 0,4.15194 -30.81236,0 -30.8123497,0 0,-4.15824 z"
     id="path3151-6"
     inkscape:connector-curvature="0" />
</svg>
